<?xml version="1.0" encoding="UTF-8"?>
<svg id="Layer_2" data-name="Layer 2" xmlns="http://www.w3.org/2000/svg" viewBox="0 0 58.66 66.67">
  <defs>
    <style>
      .cls-1 {
        fill: #ead9a6;
      }
    </style>
  </defs>
  <g id="Layer_2-2" data-name="Layer 2">
    <g id="Layer_7" data-name="Layer 7">
      <g>
        <path class="cls-1" d="M13.75,26.91c.97.61,2.07,1.77,3.09,1.92.55-.23-.06-1.45-.19-1.95-1.19-3.12-3.25-5.93-5.38-8.53-1.53-1.83-3.42-3.8-4.63-5.8,0-.03-.01-.06,0-.07.09-.06.2.02.42.12.9.47,1.94,1.11,2.88,1.6,3.14,1.68,6.9,3.9,10.7,4.66,1.58.03.44-2.79.36-3.87-.21-1.16-.29-2.09.04-1.91.77.6,1.37,2,1.93,2.89,2.16,3.84,4.62,6.97,7.72,9.98,1.72,1.72,2.23.88,2.58-1.11.49-2.59.81-5.23.97-7.87.09-3.59-.21-7.21-.44-10.78,0-.46-.08-1.31.14-1.55.42,0,.77,1.26.98,1.71,1.69,4.18,3.47,8.26,5.72,12.12.76,1.07,1.59,2.7,2.9,3.05,1.11.03,1.69-1.44,2.5-2.15,2.84-3.01,5.01-6.6,7.14-10.11.22-.34.51-.8.72-1.05.2-.25.31-.32.3-.19-.38,1.2-1.36,2.67-1.94,3.87-1.6,3.18-3.21,6.75-4.42,10.07-.95,2.1-4.82,16.07-.13,7.29,2.77-5.61,4.73-11.52,6.39-17.52.31-1.27.92-2.64.87-3.94-.52-2.62-2.68,1.27-3.7,2.35-1.79,2.25-3.7,4.35-5.14,6.83-.67.84-1.47,3.61-2.04,2.81-.63-1.04-.85-3.08-1.53-4.27-1.58-3-4.64-9.57-6.45-12.58l-.04-.06c-1.54-2.32-3.77-4.83-4.18-.53-.15,1.65-.17,3.12-.35,4.71-.62,4.83-.19,9.79.01,14.63-.08,1.38-.81-.04-1.1-.57-1.49-2.68-3.09-5.49-4.97-7.93-2-2.56-4.2-4.9-6.57-7.01-2.01-1.66-1.87,3.12-1.66,4.32.16.96,1,2.42,1.69,3.7.17.43,1.74,2.78.77,2.5-1.03-.42-2.23-1.27-3.26-1.84-3.75-2.27-7.79-3.84-11.73-5.66-1.38-.54-2.56-1.51-3.85-2.12-4.29-.65,8.84,14.86,9.7,16.29.92,1.36,1.8,2.6,3.19,3.55Z"/>
        <path class="cls-1" d="M16.84,47.91c-6.27.4-9.13-3.32-8.43-8.74.5-3.88,6.31-8.93,10.92-7.48-2.85-2.3-7.6-.45-10.1,1.52-7.96,6.26-3.5,19.28,7.62,18.58,8.19-.51,13.95-7.56,21.88-1.73,1.02.75,1.74,1.89,2.98,2.37.05-.38-.29-.64-.52-.93-8.03-10.32-13.95-4.27-24.33-3.6Z"/>
        <path class="cls-1" d="M16.24,35.37c-.16,0-.32,0-.48,0-5.01.32-6.53,5.96-3.34,9.19,4.29,4.34,12.4-2.83,7.51-7.68-1.04-1.03-2.17-1.46-3.69-1.51ZM16.36,40.99l-2.26,2.37c-.4-1.02,1.33-2.59,1.39-3.17.05-.45-1.89-2.26-1.62-3.1,1.56.8,2.06,3.12,3.8,1.3.19.61-.75,1.35-.66,1.8.1.51,1.7,1.9,1.61,2.74l-2.26-1.94Z"/>
        <path class="cls-1" d="M36.69,54.39c-.91-1.08-1.89-2.75-3.08-3.73-.19-.13-.33-.16-.39-.07v.03c-.1.42.22,1.04.39,1.48,1.15,2.78,3.03,4.99,4.66,7.51.17.4-.18.23-.91-.18-1.2-.7-2.99-1.37-4.35-1.98-3.53-1.63.47,1.57,1.71,2.06,3.37,1.52,3.17,2.23.53,4.37-1.23.97-3.69,3.23-.44,1.13,1.52-.98,2.97-1.96,4.54-2.67.43-.2.77-.42.96-.83.32-1.44-.88-2.6-1.69-4.16-.64-1.06-1.2-2.03-1.94-2.96Z"/>
        <path class="cls-1" d="M49.41,45.83c0-2.94-4.32-3-5.26-.11v.86c.91,3.09,5.26,1.66,5.26-.76Z"/>
        <path class="cls-1" d="M26.98,62.29c-.67-.5-2.87-1.29-2.1-2.31.67-.71,1.75-1.08,2.62-1.52,1.33-.69,2.78-1.34,3.82-2.38l.02-.03c.06-.12-.02-.17-.23-.16-1.93.31-3.67,1.28-5.35,2.29.29-.26.56-.52.8-.74l.07-.07c1.09-1.18,5.7-6.04,5.36-7.43-.57-.43-1.94,1.17-2.43,1.58-2.28,2.39-4.2,4.6-5.91,7.31-.13.35-.02.51.18.53-.48.35-.72.82-.25,1.37,2.12,2.15,4.64,3.97,7.37,5.49.4.19,1.07.58,1.45.41.24-1.18-4.11-3.55-5.41-4.34Z"/>
        <path class="cls-1" d="M49.04,34.28c-8.13-1.08-16.76,6.13-24.6.2-.99-.75-2.07-1.87-2.93-2.81-.13.36-.17.82.02,1.14,6.62,11.35,16.45,3.94,26.77,5.29,6.23.81,8.32,5.02,6.59,10.2-1.24,3.71-7.92,7.55-12.16,5.24,2.35,2.8,7.37,1.91,10.21.45,9.01-4.61,7.15-18.24-3.89-19.7Z"/>
      </g>
    </g>
  </g>
</svg>